<svg width="39" height="53" viewBox="0 0 39 53" fill="none" xmlns="http://www.w3.org/2000/svg">
<path d="M14.994 34.7586L14.9721 34.7056C14.6425 34.6124 14.3157 34.5089 13.9921 34.3953L13.9677 34.3852C10.6003 33.1925 7.67734 30.9397 5.60811 27.9421C3.53888 24.9445 2.42693 21.3522 2.4279 17.6679C2.42682 13.1463 4.10087 8.79649 7.10524 5.51433C10.1096 2.23217 14.2155 0.267639 18.5773 0.0253896C22.939 -0.21686 27.2244 1.28161 30.5508 4.21217C33.8772 7.14272 35.9912 11.2822 36.4575 15.7779C36.5648 16.8176 35.736 17.6679 34.7268 17.6679C33.7176 17.6679 32.9107 16.815 32.7767 15.7805C32.4524 13.3385 31.5059 11.03 30.0344 9.09215C28.5628 7.1543 26.6193 5.65702 24.4036 4.7542C22.1879 3.85137 19.78 3.57556 17.4272 3.95511C15.0744 4.33467 12.8617 5.35589 11.0165 6.91384C9.17127 8.47178 7.76008 10.5102 6.92796 12.8197C6.09584 15.1292 5.87281 17.6264 6.28178 20.0547C6.69076 22.4829 7.71699 24.7547 9.255 26.6364C10.793 28.5181 12.7873 29.942 15.033 30.7616C15.4854 29.7032 16.2755 28.8378 17.2709 28.3106C18.2663 27.7834 19.4066 27.6265 20.5005 27.866C21.5944 28.1056 22.5755 28.7271 23.2794 29.6264C23.9833 30.5257 24.3672 31.6481 24.3668 32.8056C24.3668 34.3145 23.7281 35.667 22.7165 36.5906C21.8262 37.4046 20.6794 37.8542 19.4915 37.8548C18.5298 37.8583 17.5887 37.5659 16.7879 37.0146C15.9872 36.4633 15.3627 35.6781 14.994 34.7586ZM9.73355 36.5931C7.93691 35.5993 6.29168 34.3367 4.85093 32.8459C3.51543 33.0068 2.28353 33.6698 1.38923 34.709C0.494937 35.7483 0.000554122 37.0913 0 38.4831V39.9416C0 42.1925 0.775173 44.3726 2.18901 46.086C6.00637 50.7138 11.8226 53 19.4915 53C27.1603 53 32.979 50.7138 36.8037 46.086C38.2208 44.372 38.9998 42.1902 39 39.934V38.4831C39 36.9782 38.4228 35.5349 37.3953 34.4703C36.3678 33.4057 34.9739 32.8069 33.5202 32.8056H28.0233C28.0233 34.1631 27.7307 35.445 27.2018 36.5906H33.5202C34.0042 36.5919 34.468 36.7919 34.8098 37.1467C35.1516 37.5015 35.3435 37.9821 35.3435 38.4831V39.934C35.3439 41.2877 34.8771 42.597 34.0272 43.6257C30.9631 47.33 26.1682 49.2124 19.4915 49.2124C12.8147 49.2124 8.02475 47.33 4.97037 43.6282C4.12103 42.6001 3.65423 41.2919 3.65404 39.9391V38.4831C3.65404 37.9812 3.84666 37.4998 4.18952 37.1449C4.53238 36.79 4.9974 36.5906 5.48228 36.5906L9.73355 36.5931ZM9.74086 17.6679C9.7413 15.9269 10.1768 14.2157 11.005 12.7004C11.8331 11.1851 13.0259 9.91733 14.4673 9.02025C15.9087 8.12316 17.5497 7.62728 19.231 7.58077C20.9122 7.53425 22.5765 7.9387 24.0622 8.7548C25.5478 9.57091 26.8042 10.7709 27.7094 12.2382C28.6146 13.7056 29.1377 15.3903 29.228 17.1288C29.3183 18.8673 28.9726 20.6004 28.2246 22.1597C27.4766 23.719 26.3517 25.0516 24.9591 26.0278C23.4249 24.7022 21.4899 23.9762 19.4915 23.9763C21.1077 23.9763 22.6578 23.3117 23.8007 22.1286C24.9435 20.9456 25.5856 19.341 25.5856 17.6679C25.5856 15.9948 24.9435 14.3903 23.8007 13.2072C22.6578 12.0242 21.1077 11.3595 19.4915 11.3595C17.8752 11.3595 16.3251 12.0242 15.1823 13.2072C14.0394 14.3903 13.3973 15.9948 13.3973 17.6679C13.3973 19.341 14.0394 20.9456 15.1823 22.1286C16.3251 23.3117 17.8752 23.9763 19.4915 23.9763C17.4097 23.9763 15.5035 24.7485 14.0263 26.0278C12.7048 25.1046 11.6228 23.8594 10.8755 22.4016C10.1282 20.9438 9.73858 19.3182 9.74086 17.6679Z" fill="white"/>
</svg>
