<svg xmlns="http://www.w3.org/2000/svg" xmlns:xlink="http://www.w3.org/1999/xlink" version="1.1" width="256" height="256" viewBox="0 0 256 256" xml:space="preserve">

<defs>
</defs>
<g style="stroke: none; stroke-width: 0; stroke-dasharray: none; stroke-linecap: butt; stroke-linejoin: miter; stroke-miterlimit: 10; fill: none; fill-rule: nonzero; opacity: 1;" transform="translate(1.4065934065934016 1.4065934065934016) scale(2.81 2.81)" >
	<path d="M 77.21 16.502 H 12.79 C 5.737 16.502 0 22.239 0 29.292 s 5.737 12.79 12.79 12.79 h 12.36 v 29.417 c 0 1.104 0.896 2 2 2 h 35.701 c 1.104 0 2 -0.896 2 -2 V 42.081 H 77.21 c 7.053 0 12.79 -5.737 12.79 -12.79 S 84.263 16.502 77.21 16.502 z M 60.851 69.498 H 29.149 V 31.292 h 31.701 V 69.498 z M 77.21 38.081 H 64.851 v -6.79 h 11.566 c 1.104 0 2 -0.896 2 -2 s -0.896 -2 -2 -2 H 13.583 c -1.104 0 -2 0.896 -2 2 s 0.896 2 2 2 h 11.566 v 6.79 H 12.79 c -4.847 0 -8.79 -3.943 -8.79 -8.79 s 3.943 -8.79 8.79 -8.79 h 64.42 c 4.847 0 8.79 3.943 8.79 8.79 S 82.057 38.081 77.21 38.081 z" style="stroke: none; stroke-width: 1; stroke-dasharray: none; stroke-linecap: butt; stroke-linejoin: miter; stroke-miterlimit: 10; fill: rgb(0,0,0); fill-rule: nonzero; opacity: 1;" transform=" matrix(1 0 0 1 0 0) " stroke-linecap="round" />
	<path d="M 44.25 43.382 c 0.638 -0.239 1.331 -0.216 1.951 0.066 c 0.62 0.282 1.093 0.789 1.332 1.426 c 0.388 1.035 1.542 1.556 2.575 1.171 c 1.034 -0.388 1.559 -1.541 1.171 -2.575 c -0.614 -1.639 -1.83 -2.94 -3.423 -3.664 c -0.28 -0.127 -0.567 -0.227 -0.856 -0.313 v -0.813 c 0 -1.104 -0.896 -2 -2 -2 s -2 0.896 -2 2 v 0.906 c -0.051 0.018 -0.103 0.03 -0.154 0.05 c -1.638 0.614 -2.939 1.83 -3.664 3.422 s -0.785 3.372 -0.17 5.011 c 0.72 1.921 2.256 3.36 4.22 3.959 l 2.217 0.813 c 0.041 0.015 0.083 0.028 0.125 0.041 c 0.778 0.229 1.387 0.792 1.669 1.545 c 0.494 1.317 -0.175 2.791 -1.493 3.285 c -0.638 0.239 -1.33 0.216 -1.951 -0.066 c -0.62 -0.282 -1.094 -0.789 -1.333 -1.427 c -0.388 -1.034 -1.54 -1.558 -2.575 -1.171 c -1.034 0.388 -1.558 1.541 -1.17 2.575 c 0.614 1.639 1.83 2.939 3.423 3.664 c 0.28 0.127 0.567 0.226 0.856 0.312 v 0.813 c 0 1.104 0.896 2 2 2 s 2 -0.896 2 -2 v -0.912 c 0.051 -0.018 0.104 -0.024 0.154 -0.043 c 3.383 -1.27 5.103 -5.053 3.834 -8.435 c -0.72 -1.92 -2.256 -3.359 -4.22 -3.958 l -2.217 -0.813 c -0.041 -0.015 -0.083 -0.029 -0.125 -0.041 c -0.778 -0.229 -1.387 -0.792 -1.669 -1.546 c -0.239 -0.638 -0.215 -1.331 0.066 -1.951 C 43.105 44.095 43.612 43.622 44.25 43.382 z" style="stroke: none; stroke-width: 1; stroke-dasharray: none; stroke-linecap: butt; stroke-linejoin: miter; stroke-miterlimit: 10; fill: rgb(0,0,0); fill-rule: nonzero; opacity: 1;" transform=" matrix(1 0 0 1 0 0) " stroke-linecap="round" />
</g>
</svg>